{"title":"Go.Trabi.Go.1.1991.DVDRip.XviD.AC3-SNS","uid":5484508,"size":1566394355,"categoryP":"video","categoryS":"movies","magnet":"?xt=urn:btih:a5b4748d6fad852edf875a4427f5450da1f98b34&amp;dn=Go.Trabi.Go.1.1991.DVDRip.XviD.AC3-SNS&amp;tr=udp%3A%2F%2Ftracker.openbittorrent.com%3A80&amp;tr=udp%3A%2F%2Fopen.demonii.com%3A1337&amp;tr=udp%3A%2F%2Ftracker.coppersurfer.tk%3A6969&amp;tr=udp%3A%2F%2Fexodus.desync.com%3A6969","seeders":1,"leechers":0,"uploader":"snsdg","files":-1,"time":1270634579,"description":"Family Struutz lives in Bitterfeld (GDR). After the fall of the wall, they take the opportunity to go on holiday with their car, an old Trabant. They simply want to visit Italy. But there are some incidents during their journey.\n\n &lt;a href=&quot;\nhttp://www.abload.de/img/poster4rjgb.jpg&quot; rel=&quot;nofollow&quot; target=&quot;_NEW&quot;&gt;\nhttp://www.abload.de/img/poster4rjgb.jpg&lt;/a&gt;\n &lt;a href=&quot;\nhttp://www.abload.de/img/cover88fm.jpg&quot; rel=&quot;nofollow&quot; target=&quot;_NEW&quot;&gt;\nhttp://www.abload.de/img/cover88fm.jpg&lt;/a&gt;\n\n\nGeneral\nComplete name                    : Go.Trabi.Go.1.1991.DVDRip.XviD.AC3-SNS.avi\nFormat                           : AVI\nFormat/Info                      : Audio Video Interleave\nFile size                        : 1.46 GiB\nDuration                         : 1h 32mn\nOverall bit rate                 : 2 264 Kbps\nWriting application              : VirtualDubMod 1.5.4.1 (build 2178/release)\nWriting library                  : VirtualDubMod build 2178/release\n\nVideo\nID                               : 0\nFormat                           : MPEG-4 Visual\nFormat profile                   : Advanced Simple@L5\nFormat settings, BVOP            : Yes\nFormat settings, QPel            : No\nFormat settings, GMC             : No warppoints\nFormat settings, Matrix          : Custom\nCodec ID                         : XVID\nCodec ID/Hint                    : XviD\nDuration                         : 1h 32mn\nBit rate                         : 2 065 Kbps\nWidth                            : 720 pixels\nHeight                           : 400 pixels\nDisplay aspect ratio             : 16:9\nFrame rate                       : 25.000 fps\nResolution                       : 8 bits\nColorimetry                      : 4:2:0\nScan type                        : Progressive\nBits/(Pixel*Frame)               : 0.287\nStream size                      : 1.33 GiB (92%)\nWriting library                  : XviD 1.2.1 (UTC 2008-12-04)\n\nAudio\nID                               : 1\nFormat                           : AC-3\nFormat/Info                      : Audio Coding 3\nCodec ID                         : 2000\nDuration                         : 1h 32mn\nBit rate mode                    : Constant\nBit rate                         : 192 Kbps\nChannel(s)                       : 2 channels\nChannel positions                : Front: L R\nSampling rate                    : 48.0 KHz\nStream size                      : 126.65 MiB (8%)\nAlignment                        : Aligned on interleaves\nInterleave, duration             : 96 ms (2.40 video frames)\nInterleave, preload duration     : 96 ms\nLanguage                         : German\n\nSource: DVD5, PAL.\nSource resolution: 720x576.\nSource aspect ratio: 16:9, progressive.\n","torrent":{"xt":"urn:btih:a5b4748d6fad852edf875a4427f5450da1f98b34","amp;dn":"Go.Trabi.Go.1.1991.DVDRip.XviD.AC3-SNS","amp;tr":["udp%3A%2F%2Ftracker.openbittorrent.com%3A80","udp%3A%2F%2Fopen.demonii.com%3A1337","udp%3A%2F%2Ftracker.coppersurfer.tk%3A6969","udp%3A%2F%2Fexodus.desync.com%3A6969"],"infoHash":"a5b4748d6fad852edf875a4427f5450da1f98b34","infoHashBuffer":{"type":"Buffer","data":[165,180,116,141,111,173,133,46,223,135,90,68,39,245,69,13,161,249,139,52]},"announce":[],"urlList":[]}}